<mxfile host="app.diagrams.net" agent="Mozilla/5.0 (Windows NT 10.0; Win64; x64) AppleWebKit/537.36 (KHTML, like Gecko) Chrome/133.0.0.0 Safari/537.36" version="26.2.3">
  <diagram name="Trang-1" id="GGQat-K2NFDKh26I3S5N">
    <mxGraphModel dx="1284" dy="640" grid="1" gridSize="10" guides="1" tooltips="1" connect="1" arrows="1" fold="1" page="1" pageScale="1" pageWidth="827" pageHeight="1169" math="0" shadow="0">
      <root>
        <mxCell id="0" />
        <mxCell id="1" parent="0" />
        <mxCell id="Cl8C-jdmJT4QdRD2qP5p-5" value="" style="edgeStyle=orthogonalEdgeStyle;rounded=0;orthogonalLoop=1;jettySize=auto;html=1;" parent="1" source="Cl8C-jdmJT4QdRD2qP5p-1" target="Cl8C-jdmJT4QdRD2qP5p-2" edge="1">
          <mxGeometry relative="1" as="geometry" />
        </mxCell>
        <mxCell id="Cl8C-jdmJT4QdRD2qP5p-1" value="start" style="ellipse;whiteSpace=wrap;html=1;" parent="1" vertex="1">
          <mxGeometry x="360" y="30" width="80" height="50" as="geometry" />
        </mxCell>
        <mxCell id="Ez7kC74daC8JV2E3w4bM-2" value="" style="edgeStyle=orthogonalEdgeStyle;rounded=0;orthogonalLoop=1;jettySize=auto;html=1;" parent="1" source="Cl8C-jdmJT4QdRD2qP5p-2" target="Ez7kC74daC8JV2E3w4bM-1" edge="1">
          <mxGeometry relative="1" as="geometry" />
        </mxCell>
        <mxCell id="Cl8C-jdmJT4QdRD2qP5p-2" value="khởi tạo cảm biến" style="rounded=0;whiteSpace=wrap;html=1;" parent="1" vertex="1">
          <mxGeometry x="340" y="120" width="120" height="60" as="geometry" />
        </mxCell>
        <mxCell id="NVoEm5yAQCFRFmfEwY-e-2" value="" style="edgeStyle=orthogonalEdgeStyle;rounded=0;orthogonalLoop=1;jettySize=auto;html=1;" edge="1" parent="1" source="Cl8C-jdmJT4QdRD2qP5p-6" target="Ez7kC74daC8JV2E3w4bM-9">
          <mxGeometry relative="1" as="geometry" />
        </mxCell>
        <mxCell id="NVoEm5yAQCFRFmfEwY-e-5" value="" style="edgeStyle=orthogonalEdgeStyle;rounded=0;orthogonalLoop=1;jettySize=auto;html=1;" edge="1" parent="1" source="Cl8C-jdmJT4QdRD2qP5p-6" target="Cl8C-jdmJT4QdRD2qP5p-9">
          <mxGeometry relative="1" as="geometry" />
        </mxCell>
        <mxCell id="Cl8C-jdmJT4QdRD2qP5p-6" value="kiểm tra quá tải&lt;div&gt;(ngưỡng trung bình)&lt;/div&gt;" style="rhombus;whiteSpace=wrap;html=1;" parent="1" vertex="1">
          <mxGeometry x="312.5" y="440" width="175" height="70" as="geometry" />
        </mxCell>
        <mxCell id="Ez7kC74daC8JV2E3w4bM-16" value="" style="edgeStyle=orthogonalEdgeStyle;rounded=0;orthogonalLoop=1;jettySize=auto;html=1;" parent="1" source="Cl8C-jdmJT4QdRD2qP5p-9" target="Cl8C-jdmJT4QdRD2qP5p-12" edge="1">
          <mxGeometry relative="1" as="geometry" />
        </mxCell>
        <mxCell id="Cl8C-jdmJT4QdRD2qP5p-9" value="điều chỉnh dòng và áp" style="rounded=0;whiteSpace=wrap;html=1;" parent="1" vertex="1">
          <mxGeometry x="340" y="550" width="120" height="60" as="geometry" />
        </mxCell>
        <mxCell id="Ez7kC74daC8JV2E3w4bM-6" value="" style="edgeStyle=orthogonalEdgeStyle;rounded=0;orthogonalLoop=1;jettySize=auto;html=1;" parent="1" source="Cl8C-jdmJT4QdRD2qP5p-10" target="Ez7kC74daC8JV2E3w4bM-5" edge="1">
          <mxGeometry relative="1" as="geometry" />
        </mxCell>
        <mxCell id="NVoEm5yAQCFRFmfEwY-e-4" value="" style="edgeStyle=orthogonalEdgeStyle;rounded=0;orthogonalLoop=1;jettySize=auto;html=1;" edge="1" parent="1" source="Cl8C-jdmJT4QdRD2qP5p-10" target="Cl8C-jdmJT4QdRD2qP5p-6">
          <mxGeometry relative="1" as="geometry" />
        </mxCell>
        <mxCell id="Cl8C-jdmJT4QdRD2qP5p-10" value="kiểm tra vượt ngưỡng&lt;div&gt;(ngưỡng cao)&lt;/div&gt;" style="rhombus;whiteSpace=wrap;html=1;" parent="1" vertex="1">
          <mxGeometry x="310" y="320" width="180" height="80" as="geometry" />
        </mxCell>
        <mxCell id="Cl8C-jdmJT4QdRD2qP5p-18" value="" style="edgeStyle=orthogonalEdgeStyle;rounded=0;orthogonalLoop=1;jettySize=auto;html=1;" parent="1" source="Cl8C-jdmJT4QdRD2qP5p-12" target="Cl8C-jdmJT4QdRD2qP5p-13" edge="1">
          <mxGeometry relative="1" as="geometry" />
        </mxCell>
        <mxCell id="NVoEm5yAQCFRFmfEwY-e-8" style="edgeStyle=orthogonalEdgeStyle;rounded=0;orthogonalLoop=1;jettySize=auto;html=1;entryX=0.5;entryY=1;entryDx=0;entryDy=0;" edge="1" parent="1" source="Cl8C-jdmJT4QdRD2qP5p-12" target="NVoEm5yAQCFRFmfEwY-e-7">
          <mxGeometry relative="1" as="geometry" />
        </mxCell>
        <mxCell id="Cl8C-jdmJT4QdRD2qP5p-12" value="có tải?" style="rhombus;whiteSpace=wrap;html=1;" parent="1" vertex="1">
          <mxGeometry x="310" y="650" width="180" height="80" as="geometry" />
        </mxCell>
        <mxCell id="Cl8C-jdmJT4QdRD2qP5p-20" value="" style="edgeStyle=orthogonalEdgeStyle;rounded=0;orthogonalLoop=1;jettySize=auto;html=1;" parent="1" source="Cl8C-jdmJT4QdRD2qP5p-13" target="Cl8C-jdmJT4QdRD2qP5p-19" edge="1">
          <mxGeometry relative="1" as="geometry" />
        </mxCell>
        <mxCell id="NVoEm5yAQCFRFmfEwY-e-12" style="edgeStyle=orthogonalEdgeStyle;rounded=0;orthogonalLoop=1;jettySize=auto;html=1;entryX=0.5;entryY=1;entryDx=0;entryDy=0;" edge="1" parent="1" source="Cl8C-jdmJT4QdRD2qP5p-13" target="NVoEm5yAQCFRFmfEwY-e-10">
          <mxGeometry relative="1" as="geometry" />
        </mxCell>
        <mxCell id="Cl8C-jdmJT4QdRD2qP5p-13" value="leo dốc?" style="rhombus;whiteSpace=wrap;html=1;" parent="1" vertex="1">
          <mxGeometry x="310" y="780" width="180" height="80" as="geometry" />
        </mxCell>
        <mxCell id="Cl8C-jdmJT4QdRD2qP5p-19" value="main" style="rounded=0;whiteSpace=wrap;html=1;" parent="1" vertex="1">
          <mxGeometry x="340" y="900" width="120" height="60" as="geometry" />
        </mxCell>
        <mxCell id="NVoEm5yAQCFRFmfEwY-e-3" value="" style="edgeStyle=orthogonalEdgeStyle;rounded=0;orthogonalLoop=1;jettySize=auto;html=1;" edge="1" parent="1" source="Ez7kC74daC8JV2E3w4bM-1" target="Cl8C-jdmJT4QdRD2qP5p-10">
          <mxGeometry relative="1" as="geometry" />
        </mxCell>
        <mxCell id="Ez7kC74daC8JV2E3w4bM-1" value="đọc giá trị dòng điện và điện áp" style="rounded=0;whiteSpace=wrap;html=1;" parent="1" vertex="1">
          <mxGeometry x="340" y="220" width="120" height="60" as="geometry" />
        </mxCell>
        <mxCell id="Ez7kC74daC8JV2E3w4bM-5" value="shut down" style="rounded=0;whiteSpace=wrap;html=1;" parent="1" vertex="1">
          <mxGeometry x="570" y="330" width="120" height="60" as="geometry" />
        </mxCell>
        <mxCell id="Ez7kC74daC8JV2E3w4bM-8" value="&lt;b&gt;NO&lt;/b&gt;" style="text;html=1;align=center;verticalAlign=middle;whiteSpace=wrap;rounded=0;" parent="1" vertex="1">
          <mxGeometry x="400" y="510" width="60" height="30" as="geometry" />
        </mxCell>
        <mxCell id="Ez7kC74daC8JV2E3w4bM-9" value="cảnh báo quá dòng, quá áp" style="rounded=0;whiteSpace=wrap;html=1;" parent="1" vertex="1">
          <mxGeometry x="570" y="445" width="120" height="60" as="geometry" />
        </mxCell>
        <mxCell id="Ez7kC74daC8JV2E3w4bM-13" value="&lt;b&gt;YES&lt;/b&gt;" style="text;html=1;align=center;verticalAlign=middle;whiteSpace=wrap;rounded=0;" parent="1" vertex="1">
          <mxGeometry x="500" y="445" width="60" height="30" as="geometry" />
        </mxCell>
        <mxCell id="Ez7kC74daC8JV2E3w4bM-15" value="&lt;b&gt;YES&lt;/b&gt;" style="text;html=1;align=center;verticalAlign=middle;whiteSpace=wrap;rounded=0;" parent="1" vertex="1">
          <mxGeometry x="500" y="330" width="60" height="30" as="geometry" />
        </mxCell>
        <mxCell id="Ez7kC74daC8JV2E3w4bM-19" value="&lt;b&gt;NO&lt;/b&gt;" style="text;html=1;align=center;verticalAlign=middle;whiteSpace=wrap;rounded=0;" parent="1" vertex="1">
          <mxGeometry x="400" y="740" width="60" height="30" as="geometry" />
        </mxCell>
        <mxCell id="Ez7kC74daC8JV2E3w4bM-20" value="&lt;b&gt;YES&lt;/b&gt;" style="text;html=1;align=center;verticalAlign=middle;whiteSpace=wrap;rounded=0;" parent="1" vertex="1">
          <mxGeometry x="250" y="660" width="60" height="30" as="geometry" />
        </mxCell>
        <mxCell id="Ez7kC74daC8JV2E3w4bM-21" value="&lt;b&gt;NO&lt;/b&gt;" style="text;html=1;align=center;verticalAlign=middle;whiteSpace=wrap;rounded=0;" parent="1" vertex="1">
          <mxGeometry x="400" y="860" width="60" height="30" as="geometry" />
        </mxCell>
        <mxCell id="Ez7kC74daC8JV2E3w4bM-22" value="&lt;b&gt;YES&lt;/b&gt;" style="text;html=1;align=center;verticalAlign=middle;whiteSpace=wrap;rounded=0;" parent="1" vertex="1">
          <mxGeometry x="530" y="790" width="60" height="30" as="geometry" />
        </mxCell>
        <mxCell id="NVoEm5yAQCFRFmfEwY-e-9" style="edgeStyle=orthogonalEdgeStyle;rounded=0;orthogonalLoop=1;jettySize=auto;html=1;entryX=0;entryY=0.5;entryDx=0;entryDy=0;" edge="1" parent="1" source="NVoEm5yAQCFRFmfEwY-e-7" target="Ez7kC74daC8JV2E3w4bM-1">
          <mxGeometry relative="1" as="geometry">
            <Array as="points">
              <mxPoint x="220" y="250" />
            </Array>
          </mxGeometry>
        </mxCell>
        <mxCell id="NVoEm5yAQCFRFmfEwY-e-7" value="cảnh báo có tải" style="rounded=0;whiteSpace=wrap;html=1;" vertex="1" parent="1">
          <mxGeometry x="160" y="550" width="120" height="60" as="geometry" />
        </mxCell>
        <mxCell id="NVoEm5yAQCFRFmfEwY-e-13" style="edgeStyle=orthogonalEdgeStyle;rounded=0;orthogonalLoop=1;jettySize=auto;html=1;entryX=1;entryY=0.5;entryDx=0;entryDy=0;" edge="1" parent="1" source="NVoEm5yAQCFRFmfEwY-e-10" target="Ez7kC74daC8JV2E3w4bM-1">
          <mxGeometry relative="1" as="geometry">
            <Array as="points">
              <mxPoint x="710" y="250" />
            </Array>
          </mxGeometry>
        </mxCell>
        <mxCell id="NVoEm5yAQCFRFmfEwY-e-10" value="cảnh báo leo dốc" style="rounded=0;whiteSpace=wrap;html=1;" vertex="1" parent="1">
          <mxGeometry x="650" y="650" width="120" height="60" as="geometry" />
        </mxCell>
      </root>
    </mxGraphModel>
  </diagram>
</mxfile>
